<?xml version="1.0" encoding="UTF-8" standalone="no"?>
<svg width="333px" height="78px" viewBox="0 0 333 78" version="1.1" xmlns="http://www.w3.org/2000/svg" xmlns:xlink="http://www.w3.org/1999/xlink">
    <!-- Generator: Sketch 43.1 (39012) - http://www.bohemiancoding.com/sketch -->
    <title>Group 5</title>
    <desc>Created with Sketch.</desc>
    <defs>
        <linearGradient x1="50%" y1="107.356372%" x2="36.9789265%" y2="22.4957204%" id="linearGradient-1">
            <stop stop-color="#EDE00B" offset="0%"></stop>
            <stop stop-color="#E0C513" offset="100%"></stop>
        </linearGradient>
        <linearGradient x1="77.6149178%" y1="110.288915%" x2="32.1722095%" y2="27.4174528%" id="linearGradient-2">
            <stop stop-color="#FFF104" offset="0%"></stop>
            <stop stop-color="#FFDD02" offset="100%"></stop>
        </linearGradient>
        <polygon id="path-3" points="38.1539863 -18.3601982 89.1504527 -36.6162572 92.6659673 86.8294751 65.4099768 71.6342038 38.1539863 92.2152842"></polygon>
        <filter x="-10.8%" y="-25.5%" width="124.6%" height="158.2%" filterUnits="objectBoundingBox" id="filter-5">
            <feOffset dx="2" dy="2" in="SourceAlpha" result="shadowOffsetOuter1"></feOffset>
            <feGaussianBlur stdDeviation="5" in="shadowOffsetOuter1" result="shadowBlurOuter1"></feGaussianBlur>
            <feColorMatrix values="0 0 0 0 0   0 0 0 0 0   0 0 0 0 0  0 0 0 0.5 0" type="matrix" in="shadowBlurOuter1" result="shadowMatrixOuter1"></feColorMatrix>
            <feMerge>
                <feMergeNode in="shadowMatrixOuter1"></feMergeNode>
                <feMergeNode in="SourceGraphic"></feMergeNode>
            </feMerge>
        </filter>
        <linearGradient x1="77.6149178%" y1="110.288915%" x2="0%" y2="29.2443122%" id="linearGradient-6">
            <stop stop-color="#FFF104" offset="0%"></stop>
            <stop stop-color="#F1D000" offset="100%"></stop>
        </linearGradient>
        <polygon id="path-7" points="38.1539863 -18.5330862 89.1504527 -36.7891452 92.6659673 86.6565871 65.4099768 71.4613158 38.1539863 92.0423962"></polygon>
    </defs>
    <g id="Page-1" stroke="none" stroke-width="1" fill="none" fill-rule="evenodd">
        <g id="Group-5" transform="translate(4.000000, 0.000000)">
            <g id="Group-2" transform="translate(198.532607, 8.113804)">
                <mask id="mask-4" fill="white">
                    <use xlink:href="#path-3"></use>
                </mask>
                <use id="Rectangle-1" fill="url(#linearGradient-2)" transform="translate(65.409977, 27.799513) rotate(-90.000000) translate(-65.409977, -27.799513) " xlink:href="#path-3"></use>
            </g>
            <g id="Group" filter="url(#filter-5)" transform="translate(65.921699, 37.038791) rotate(-1.000000) translate(-65.921699, -37.038791) translate(0.921699, 9.538791)">
                <mask id="mask-8" fill="white">
                    <use xlink:href="#path-7"></use>
                </mask>
                <use id="Rectangle-1" fill="url(#linearGradient-6)" transform="translate(65.409977, 27.626625) scale(-1, 1) rotate(-90.000000) translate(-65.409977, -27.626625) " xlink:href="#path-7"></use>
            </g>
            <rect id="Rectangle" fill="url(#linearGradient-2)" x="44.2251864" y="0" width="235.858657" height="55.0579557" rx="2"></rect>
            <path d="M136.336595,24.4109589 C136.058291,24.4109589 135.847984,24.3729867 135.705669,24.2970411 C135.563355,24.2210955 135.444761,24.0628779 135.349884,23.8223836 L135.141157,23.281274 C134.894478,23.4901243 134.65729,23.6736567 134.429587,23.8318767 C134.201883,23.9900967 133.966277,24.1245816 133.72276,24.2353356 C133.479244,24.3460896 133.219919,24.4283627 132.944777,24.4821575 C132.669635,24.5359523 132.364453,24.5628493 132.029223,24.5628493 C131.580141,24.5628493 131.172178,24.5043088 130.805322,24.387226 C130.438466,24.2701433 130.12696,24.0976861 129.870793,23.8698493 C129.614627,23.6420126 129.41697,23.3588031 129.277818,23.0202123 C129.138666,22.6816216 129.069091,22.2908241 129.069091,21.8478082 C129.069091,21.4997243 129.157641,21.1421525 129.334744,20.7750822 C129.511847,20.4080119 129.818609,20.0741727 130.255041,19.7735548 C130.691473,19.4729369 131.279699,19.2213709 132.019736,19.0188493 C132.759772,18.8163278 133.692711,18.7024111 134.818579,18.6770959 L134.818579,18.2593973 C134.818579,17.6834766 134.699985,17.2673643 134.462793,17.0110479 C134.225602,16.7547316 133.888796,16.6265753 133.452364,16.6265753 C133.104483,16.6265753 132.819858,16.6645476 132.598479,16.7404932 C132.377101,16.8164387 132.179444,16.9018762 132.005504,16.9968082 C131.831564,17.0917402 131.66237,17.1771777 131.497917,17.2531233 C131.333465,17.3290689 131.13739,17.3670411 130.909686,17.3670411 C130.707283,17.3670411 130.534926,17.3179936 130.392612,17.2198973 C130.250297,17.1218009 130.138028,16.9999733 130.055802,16.854411 L129.524496,15.9335753 C130.119055,15.408285 130.778437,15.0174876 131.502661,14.7611712 C132.226885,14.5048549 133.00328,14.3766986 133.831868,14.3766986 C134.426427,14.3766986 134.962471,14.4732114 135.440017,14.6662397 C135.917562,14.8592681 136.322362,15.128238 136.65443,15.4731575 C136.986498,15.8180771 137.241079,16.2278606 137.418182,16.7025205 C137.595285,17.1771805 137.683835,17.6961342 137.683835,18.2593973 L137.683835,24.4109589 L136.336595,24.4109589 Z M132.959008,22.6167534 C133.338514,22.6167534 133.670577,22.550302 133.955207,22.4173973 C134.239836,22.2844925 134.527624,22.0693166 134.818579,21.771863 L134.818579,20.4048493 C134.230344,20.4301645 133.746481,20.4807941 133.366975,20.5567397 C132.987469,20.6326853 132.687031,20.7276159 132.465653,20.8415342 C132.244274,20.9554526 132.090893,21.0851911 132.005504,21.2307534 C131.920115,21.3763158 131.877421,21.5345334 131.877421,21.705411 C131.877421,22.0408373 131.969134,22.2765815 132.152562,22.4126507 C132.33599,22.5487199 132.604803,22.6167534 132.959008,22.6167534 Z M140.222898,24.4109589 L140.222898,14.5665616 L142.044518,14.5665616 C142.227946,14.5665616 142.381327,14.6076982 142.504667,14.6899726 C142.628006,14.772247 142.714975,14.8956567 142.765576,15.0602055 L142.936353,15.6297945 C143.126106,15.4525882 143.322181,15.2880419 143.524584,15.1361507 C143.726987,14.9842595 143.943619,14.8561033 144.174485,14.7516781 C144.405351,14.6472529 144.655189,14.5649798 144.924005,14.5048562 C145.192822,14.4447326 145.485354,14.4146712 145.801609,14.4146712 C146.339242,14.4146712 146.815199,14.5080196 147.229493,14.6947192 C147.643787,14.8814187 147.993244,15.1408956 148.277873,15.4731575 C148.562503,15.8054195 148.777553,16.2009635 148.92303,16.6598014 C149.068508,17.1186393 149.141245,17.6170247 149.141245,18.1549726 L149.141245,24.4109589 L146.200088,24.4109589 L146.200088,18.1549726 C146.200088,17.6739839 146.0894,17.2990082 145.868022,17.0300342 C145.646643,16.7610603 145.320906,16.6265753 144.890799,16.6265753 C144.568219,16.6265753 144.264618,16.6961911 143.979989,16.8354247 C143.695359,16.9746582 143.423384,17.161355 143.164055,17.3955205 L143.164055,24.4109589 L140.222898,24.4109589 Z M156.063581,14.4146712 C156.809943,14.4146712 157.489881,14.5317523 158.103416,14.7659178 C158.716951,15.0000834 159.243507,15.3355047 159.683102,15.7721918 C160.122696,16.2088789 160.464247,16.7389078 160.707763,17.3622945 C160.951279,17.9856812 161.073036,18.6865851 161.073036,19.4650274 C161.073036,20.2497984 160.951279,20.9570311 160.707763,21.5867466 C160.464247,22.2164621 160.122696,22.7512375 159.683102,23.191089 C159.243507,23.6309406 158.716951,23.9695262 158.103416,24.2068562 C157.489881,24.4441861 156.809943,24.5628493 156.063581,24.5628493 C155.310894,24.5628493 154.626212,24.4441861 154.009515,24.2068562 C153.392818,23.9695262 152.861517,23.6309406 152.415598,23.191089 C151.969678,22.7512375 151.624965,22.2164621 151.381449,21.5867466 C151.137932,20.9570311 151.016176,20.2497984 151.016176,19.4650274 C151.016176,18.6865851 151.137932,17.9856812 151.381449,17.3622945 C151.624965,16.7389078 151.969678,16.2088789 152.415598,15.7721918 C152.861517,15.3355047 153.392818,15.0000834 154.009515,14.7659178 C154.626212,14.5317523 155.310894,14.4146712 156.063581,14.4146712 Z M156.063581,22.3794247 C156.740367,22.3794247 157.238461,22.1405161 157.557879,21.6626918 C157.877296,21.1848675 158.037003,20.4586487 158.037003,19.4840137 C158.037003,18.5093787 157.877296,17.7847421 157.557879,17.3100822 C157.238461,16.8354223 156.740367,16.5980959 156.063581,16.5980959 C155.36782,16.5980959 154.858657,16.8354223 154.536077,17.3100822 C154.213497,17.7847421 154.052209,18.5093787 154.052209,19.4840137 C154.052209,20.4586487 154.213497,21.1848675 154.536077,21.6626918 C154.858657,22.1405161 155.36782,22.3794247 156.063581,22.3794247 Z M169.152859,16.7215068 C169.076958,16.841754 168.996314,16.9271915 168.910925,16.9778219 C168.825536,17.0284523 168.71643,17.0537671 168.583603,17.0537671 C168.444451,17.0537671 168.305301,17.0237058 168.166148,16.9635822 C168.026996,16.9034586 167.876777,16.8385894 167.715487,16.7689726 C167.554197,16.6993558 167.372353,16.6344866 167.16995,16.574363 C166.967547,16.5142394 166.736684,16.4841781 166.477355,16.4841781 C166.104174,16.4841781 165.817968,16.555376 165.618727,16.697774 C165.419486,16.8401719 165.319867,17.0379439 165.319867,17.2910959 C165.319867,17.4746311 165.384699,17.6265199 165.514363,17.7467671 C165.644028,17.8670143 165.816384,17.9730201 166.031438,18.0647877 C166.246491,18.1565553 166.490004,18.2435749 166.761983,18.3258493 C167.033963,18.4081237 167.312263,18.4998899 167.596892,18.6011507 C167.881522,18.7024115 168.159822,18.8210747 168.431801,18.9571438 C168.703781,19.093213 168.947293,19.2609237 169.162347,19.4602808 C169.3774,19.659638 169.549757,19.9017109 169.679421,20.1865068 C169.809086,20.4713028 169.873917,20.8130528 169.873917,21.2117671 C169.873917,21.6990846 169.785367,22.1484226 169.608264,22.5597945 C169.431161,22.9711664 169.167092,23.3255739 168.816049,23.6230274 C168.465006,23.9204809 168.031743,24.1514786 167.516248,24.3160274 C167.000752,24.4805762 166.407783,24.5628493 165.737322,24.5628493 C165.402092,24.5628493 165.066866,24.5312058 164.731636,24.4679178 C164.396406,24.4046298 164.072249,24.3191923 163.759157,24.2116027 C163.446064,24.1040132 163.156695,23.9758569 162.891041,23.8271301 C162.625387,23.6784034 162.397687,23.5186036 162.207934,23.347726 L162.891041,22.2655068 C162.973267,22.1389309 163.071305,22.0392538 163.185157,21.9664726 C163.299009,21.8936914 163.447646,21.8573014 163.631074,21.8573014 C163.801852,21.8573014 163.955233,21.8952736 164.091223,21.9712192 C164.227213,22.0471648 164.374269,22.1294379 164.532396,22.2180411 C164.690524,22.3066443 164.87553,22.3889174 165.087421,22.464863 C165.299312,22.5408086 165.566544,22.5787808 165.889124,22.5787808 C166.116827,22.5787808 166.30974,22.5550482 166.467867,22.5075822 C166.625995,22.4601162 166.752495,22.395247 166.847372,22.3129726 C166.942248,22.2306982 167.011823,22.138932 167.056099,22.0376712 C167.100375,21.9364105 167.122512,21.8319868 167.122512,21.7243973 C167.122512,21.5282045 167.0561,21.3668226 166.923272,21.2402466 C166.790445,21.1136706 166.616508,21.0045005 166.401454,20.9127329 C166.186401,20.8209653 165.941307,20.7355278 165.666165,20.6564178 C165.391023,20.5773078 165.111142,20.4871238 164.826512,20.385863 C164.541883,20.2846022 164.262001,20.1627747 163.986859,20.0203767 C163.711717,19.8779787 163.466623,19.6976107 163.25157,19.4792671 C163.036517,19.2609236 162.862579,18.9935358 162.729752,18.6770959 C162.596925,18.360656 162.530512,17.9777694 162.530512,17.5284247 C162.530512,17.1107239 162.611156,16.7135978 162.772446,16.3370342 C162.933736,15.9604707 163.175668,15.6297959 163.498248,15.345 C163.820828,15.0602041 164.225628,14.8339529 164.712661,14.6662397 C165.199694,14.4985266 165.768944,14.4146712 166.420429,14.4146712 C166.774635,14.4146712 167.117767,14.4463148 167.449834,14.5096027 C167.781902,14.5728907 168.093409,14.6614926 168.384363,14.775411 C168.675318,14.8893293 168.940968,15.0238143 169.181322,15.1788699 C169.421676,15.3339254 169.633564,15.5032183 169.816991,15.6867534 L169.152859,16.7215068 Z M182.959581,24.4109589 C182.776153,24.4109589 182.622772,24.3698223 182.499432,24.2875479 C182.376093,24.2052736 182.289124,24.0818638 182.238523,23.9173151 L182.01082,23.1673562 C181.814742,23.3762065 181.60918,23.5660676 181.394126,23.7369452 C181.179073,23.9078228 180.946629,24.0549651 180.696787,24.1783767 C180.446946,24.3017883 180.178133,24.3967188 179.890341,24.4631712 C179.602549,24.5296236 179.291043,24.5628493 178.955812,24.5628493 C178.443479,24.5628493 177.969104,24.4489326 177.532672,24.2210959 C177.09624,23.9932591 176.719902,23.6641665 176.403647,23.2338082 C176.087392,22.8034499 175.839135,22.2765853 175.65887,21.6531986 C175.478605,21.029812 175.388473,20.3194149 175.388473,19.5219863 C175.388473,18.7878456 175.489673,18.1059278 175.692077,17.4762123 C175.89448,16.8464969 176.180686,16.3022283 176.550705,15.8433904 C176.920723,15.3845525 177.365055,15.0253986 177.883713,14.7659178 C178.402371,14.5064371 178.974784,14.3766986 179.600969,14.3766986 C180.106977,14.3766986 180.535496,14.4510609 180.886539,14.5997877 C181.237583,14.7485144 181.555414,14.9431221 181.840044,15.1836164 L181.840044,10.1997123 L184.781201,10.1997123 L184.781201,24.4109589 L182.959581,24.4109589 Z M179.980473,22.3034795 C180.195527,22.3034795 180.390021,22.2829112 180.563961,22.241774 C180.737901,22.2006368 180.897608,22.1420963 181.043085,22.0661507 C181.188562,21.9902051 181.326131,21.8952745 181.455796,21.7813562 C181.58546,21.6674378 181.713542,21.534535 181.840044,21.3826438 L181.840044,17.2056575 C181.61234,16.9588344 181.370409,16.7863772 181.114242,16.6882808 C180.858075,16.5901844 180.587681,16.541137 180.303052,16.541137 C180.031073,16.541137 179.781235,16.594931 179.553531,16.7025205 C179.325828,16.8101101 179.128171,16.9825673 178.960556,17.2198973 C178.792941,17.4572272 178.661697,17.7657515 178.56682,18.1454795 C178.471944,18.5252074 178.424506,18.9840384 178.424506,19.5219863 C178.424506,20.0409478 178.462456,20.4776284 178.538358,20.8320411 C178.614259,21.1864538 178.720203,21.4728277 178.856192,21.6911712 C178.992182,21.9095148 179.155051,22.0661502 179.344804,22.1610822 C179.534557,22.2560142 179.746445,22.3034795 179.980473,22.3034795 Z M191.722512,14.4146712 C192.373997,14.4146712 192.970129,14.5159305 193.510925,14.7184521 C194.051721,14.9209736 194.516609,15.2152583 194.905603,15.6013151 C195.294596,15.9873718 195.598197,16.4604424 195.816413,17.0205411 C196.034629,17.5806398 196.143735,18.2150923 196.143735,18.9239178 C196.143735,19.1454258 196.134247,19.3257938 196.115272,19.4650274 C196.096297,19.604261 196.061509,19.7150133 196.010909,19.7972877 C195.960308,19.8795621 195.892314,19.9365204 195.806925,19.9681644 C195.721536,19.9998084 195.61243,20.0156301 195.479603,20.0156301 L189.806016,20.0156301 C189.900892,20.838374 190.15073,21.4348543 190.555537,21.805089 C190.960343,22.1753238 191.482156,22.3604384 192.120991,22.3604384 C192.462547,22.3604384 192.756659,22.3193018 193.003338,22.2370274 C193.250017,22.154753 193.469811,22.0629868 193.662727,21.961726 C193.855642,21.8604652 194.032742,21.768699 194.194033,21.6864247 C194.355323,21.6041503 194.524516,21.5630137 194.701619,21.5630137 C194.935648,21.5630137 195.112748,21.6484512 195.232925,21.8193288 L196.086809,22.8730685 C195.783205,23.2211524 195.455886,23.5043619 195.104842,23.7227055 C194.753799,23.941049 194.393274,24.111924 194.023256,24.2353356 C193.653237,24.3587472 193.283224,24.4441847 192.913206,24.4916507 C192.543188,24.5391167 192.190569,24.5628493 191.855338,24.5628493 C191.165902,24.5628493 190.519171,24.4505148 189.915123,24.2258425 C189.311076,24.0011701 188.782938,23.667331 188.330694,23.2243151 C187.878449,22.7812992 187.521086,22.2307019 187.258594,21.5725068 C186.996103,20.9143118 186.864859,20.1485386 186.864859,19.2751644 C186.864859,18.6169693 186.977128,17.993592 187.201669,17.4050137 C187.42621,16.8164354 187.748785,16.3006461 188.169404,15.8576301 C188.590024,15.4146142 189.099187,15.0633712 189.696909,14.8038904 C190.294631,14.5444097 190.969825,14.4146712 191.722512,14.4146712 Z M191.779437,16.4462055 C191.216504,16.4462055 190.776916,16.6060053 190.460661,16.9256096 C190.144406,17.2452139 189.93568,17.7056271 189.834479,18.306863 L193.506181,18.306863 C193.506181,18.0726975 193.476137,17.8448641 193.416049,17.6233562 C193.355961,17.4018482 193.257923,17.2040762 193.121933,17.0300342 C192.985944,16.8559923 192.807262,16.7151786 192.585884,16.607589 C192.364505,16.4999995 192.095692,16.4462055 191.779437,16.4462055 Z M136.611736,37.0748219 C136.738238,37.3153163 136.859994,37.5653001 136.977008,37.8247808 C137.094023,38.0842616 137.206291,38.3500671 137.313818,38.6222055 C137.421345,38.3437383 137.535195,38.0731862 137.655372,37.8105411 C137.775549,37.5478959 137.898886,37.2931656 138.025388,37.0463425 L141.573752,30.0593836 C141.637003,29.9391364 141.701834,29.845788 141.768248,29.7793356 C141.834661,29.7128832 141.90898,29.6638358 141.991207,29.6321918 C142.073433,29.6005478 142.166727,29.5815617 142.271091,29.5752329 C142.375455,29.5689041 142.497211,29.5657397 142.636364,29.5657397 L145.084165,29.5657397 L145.084165,43.3972603 L142.25686,43.3972603 L142.25686,35.442 C142.25686,35.0559433 142.275835,34.6382488 142.313785,34.1889041 L138.65157,41.299274 C138.537718,41.5207819 138.384337,41.6884926 138.191421,41.802411 C137.998506,41.9163293 137.778712,41.9732877 137.532033,41.9732877 L137.095603,41.9732877 C136.848924,41.9732877 136.62913,41.9163293 136.436215,41.802411 C136.243299,41.6884926 136.089918,41.5207819 135.976066,41.299274 L132.294876,34.179411 C132.320176,34.4009189 132.339151,34.6208414 132.351802,34.8391849 C132.364452,35.0575285 132.370777,35.2584648 132.370777,35.442 L132.370777,43.3972603 L129.543471,43.3972603 L129.543471,29.5657397 L131.991273,29.5657397 C132.130425,29.5657397 132.252181,29.5689041 132.356545,29.5752329 C132.46091,29.5815617 132.554203,29.6005478 132.63643,29.6321918 C132.718656,29.6638358 132.792975,29.7128832 132.859388,29.7793356 C132.925802,29.845788 132.990633,29.9391364 133.053884,30.0593836 L136.611736,37.0748219 Z M154.606105,43.3972603 C154.3278,43.3972603 154.117494,43.3592881 153.975179,43.2833425 C153.832864,43.2073969 153.71427,43.0491793 153.619394,42.8086849 L153.410667,42.2675753 C153.163988,42.4764257 152.9268,42.6599581 152.699096,42.8181781 C152.471393,42.9763981 152.235786,43.110883 151.99227,43.221637 C151.748754,43.332391 151.489428,43.4146641 151.214286,43.4684589 C150.939145,43.5222537 150.633963,43.5491507 150.298733,43.5491507 C149.849651,43.5491507 149.441688,43.4906102 149.074832,43.3735274 C148.707976,43.2564446 148.39647,43.0839874 148.140303,42.8561507 C147.884136,42.6283139 147.68648,42.3451044 147.547328,42.0065137 C147.408176,41.667923 147.3386,41.2771255 147.3386,40.8341096 C147.3386,40.4860257 147.427151,40.1284539 147.604253,39.7613836 C147.781356,39.3943132 148.088119,39.0604741 148.524551,38.7598562 C148.960983,38.4592382 149.549208,38.2076722 150.289245,38.0051507 C151.029282,37.8026291 151.96222,37.6887125 153.088088,37.6633973 L153.088088,37.2456986 C153.088088,36.6697779 152.969494,36.2536657 152.732303,35.9973493 C152.495112,35.741033 152.158305,35.6128767 151.721873,35.6128767 C151.373993,35.6128767 151.089367,35.6508489 150.867989,35.7267945 C150.64661,35.8027401 150.448954,35.8881776 150.275014,35.9831096 C150.101073,36.0780416 149.93188,36.1634791 149.767427,36.2394247 C149.602974,36.3153702 149.406899,36.3533425 149.179196,36.3533425 C148.976792,36.3533425 148.804436,36.304295 148.662121,36.2061986 C148.519806,36.1081022 148.407538,35.9862747 148.325311,35.8407123 L147.794005,34.9198767 C148.388565,34.3945864 149.047947,34.003789 149.772171,33.7474726 C150.496395,33.4911563 151.272789,33.363 152.101377,33.363 C152.695937,33.363 153.231981,33.4595127 153.709526,33.6525411 C154.187071,33.8455695 154.591872,34.1145394 154.923939,34.4594589 C155.256007,34.8043784 155.510589,35.214162 155.687691,35.6888219 C155.864794,36.1634818 155.953344,36.6824355 155.953344,37.2456986 L155.953344,43.3972603 L154.606105,43.3972603 Z M151.228518,41.6030548 C151.608024,41.6030548 151.940087,41.5366034 152.224716,41.4036986 C152.509346,41.2707939 152.797133,41.0556179 153.088088,40.7581644 L153.088088,39.3911507 C152.499854,39.4164659 152.015991,39.4670955 151.636485,39.5430411 C151.256979,39.6189867 150.956541,39.7139172 150.735162,39.8278356 C150.513784,39.941754 150.360403,40.0714924 150.275014,40.2170548 C150.189625,40.3626172 150.146931,40.5208348 150.146931,40.6917123 C150.146931,41.0271387 150.238644,41.2628829 150.422072,41.3989521 C150.605499,41.5350212 150.874312,41.6030548 151.228518,41.6030548 Z M158.492408,43.3972603 L158.492408,33.552863 L160.314027,33.552863 C160.497455,33.552863 160.650837,33.5939996 160.774176,33.676274 C160.897516,33.7585484 160.984484,33.8819581 161.035085,34.0465068 L161.205862,34.6160959 C161.395615,34.4388895 161.59169,34.2743432 161.794093,34.1224521 C161.996497,33.9705609 162.213128,33.8424046 162.443994,33.7379795 C162.67486,33.6335543 162.924698,33.5512811 163.193515,33.4911575 C163.462332,33.4310339 163.754863,33.4009726 164.071118,33.4009726 C164.608752,33.4009726 165.084708,33.494321 165.499003,33.6810205 C165.913297,33.8677201 166.262753,34.127197 166.547383,34.4594589 C166.832012,34.7917208 167.047062,35.1872648 167.19254,35.6461027 C167.338017,36.1049407 167.410755,36.6033261 167.410755,37.141274 L167.410755,43.3972603 L164.469598,43.3972603 L164.469598,37.141274 C164.469598,36.6602853 164.35891,36.2853096 164.137531,36.0163356 C163.916153,35.7473617 163.590415,35.6128767 163.160308,35.6128767 C162.837728,35.6128767 162.534128,35.6824925 162.249498,35.821726 C161.964869,35.9609596 161.692894,36.1476564 161.433565,36.3818219 L161.433565,43.3972603 L158.492408,43.3972603 Z M173.422281,33.3819863 C173.839737,33.3819863 174.233469,33.4231229 174.603487,33.5053973 C174.973506,33.5876716 175.316637,33.7047527 175.632892,33.8566438 L178.602512,33.8566438 L178.602512,34.9293699 C178.602512,35.0939186 178.556656,35.2236571 178.464942,35.318589 C178.373228,35.413521 178.216684,35.4863011 177.995306,35.5369315 L177.274248,35.6983151 C177.362799,35.983111 177.407074,36.2773957 177.407074,36.5811781 C177.407074,37.0748244 177.304293,37.5178337 177.098727,37.9102192 C176.893161,38.3026047 176.611698,38.6364438 176.25433,38.9117466 C175.896962,39.1870493 175.474768,39.3990609 174.987735,39.5477877 C174.500703,39.6965144 173.97889,39.7708767 173.422281,39.7708767 C173.112351,39.7708767 172.821401,39.7518906 172.549421,39.7139178 C172.334368,39.8404938 172.226843,39.986054 172.226843,40.1506027 C172.226843,40.3151515 172.313812,40.4338147 172.487752,40.5065959 C172.661692,40.5793771 172.890974,40.6300067 173.175603,40.6584863 C173.460233,40.6869659 173.78597,40.705952 174.152826,40.7154452 C174.519682,40.7249384 174.892857,40.7470889 175.272363,40.7818973 C175.651869,40.8167057 176.025045,40.8752462 176.391901,40.9575205 C176.758756,41.0397949 177.084494,41.1726977 177.369124,41.3562329 C177.653753,41.539768 177.883035,41.7850053 178.056975,42.0919521 C178.230915,42.3988988 178.317884,42.7896963 178.317884,43.2643562 C178.317884,43.7073721 178.210359,44.1408883 177.995306,44.5649178 C177.780252,44.9889473 177.464002,45.3655052 177.046545,45.6946027 C176.629089,46.0237003 176.116763,46.2879237 175.509553,46.4872808 C174.902344,46.686638 174.206593,46.7863151 173.422281,46.7863151 C172.650618,46.7863151 171.984912,46.713535 171.42514,46.5679726 C170.865369,46.4224102 170.400481,46.2309669 170.030463,45.993637 C169.660444,45.756307 169.386888,45.4825906 169.209785,45.1724795 C169.032682,44.8623683 168.944132,44.5396044 168.944132,44.2041781 C168.944132,43.767491 169.076957,43.398844 169.342611,43.098226 C169.608266,42.7976081 169.971953,42.5618639 170.433686,42.3909863 C170.212307,42.2454239 170.035207,42.0587272 169.90238,41.8308904 C169.769553,41.6030537 169.70314,41.3150976 169.70314,40.9670137 C169.70314,40.8214513 169.72844,40.6679803 169.779041,40.5065959 C169.829642,40.3452115 169.908704,40.1885761 170.016231,40.0366849 C170.123758,39.8847938 170.259745,39.7392336 170.424198,39.6 C170.588651,39.4607664 170.784726,39.3373567 171.012429,39.2297671 C170.500096,38.9576288 170.096877,38.5968927 169.80276,38.1475479 C169.508643,37.6982032 169.361587,37.1760852 169.361587,36.5811781 C169.361587,36.0875318 169.465949,35.6429403 169.674677,35.2473904 C169.883406,34.8518405 170.169612,34.5164192 170.533306,34.2411164 C170.896999,33.9658137 171.325518,33.7538021 171.818876,33.6050753 C172.312234,33.4563486 172.846697,33.3819863 173.422281,33.3819863 Z M175.604429,43.758 C175.604429,43.59978 175.555411,43.473206 175.457372,43.378274 C175.359333,43.283342 175.226507,43.2073975 175.058892,43.1504384 C174.891277,43.0934792 174.695202,43.0523426 174.470661,43.0270274 C174.24612,43.0017122 174.004188,42.9827261 173.744859,42.9700685 C173.48553,42.9574109 173.216717,42.9463357 172.938413,42.9368425 C172.660109,42.9273493 172.384971,42.906781 172.112991,42.875137 C171.929564,43.001713 171.779345,43.1425266 171.66233,43.2975822 C171.545316,43.4526378 171.48681,43.6282593 171.48681,43.8244521 C171.48681,43.9636856 171.516853,44.0902597 171.576942,44.2041781 C171.63703,44.3180965 171.742974,44.4161914 171.894777,44.4984658 C172.046579,44.5807401 172.25056,44.6456094 172.506727,44.6930753 C172.762894,44.7405413 173.08705,44.764274 173.479206,44.764274 C173.902988,44.764274 174.250863,44.7389592 174.522843,44.6883288 C174.794822,44.6376984 175.011453,44.5680826 175.172744,44.4794795 C175.334034,44.3908763 175.446302,44.2848705 175.509553,44.1614589 C175.572804,44.0380473 175.604429,43.9035624 175.604429,43.758 Z M173.422281,37.9576849 C173.909313,37.9576849 174.261933,37.8358574 174.480148,37.5921986 C174.698364,37.3485399 174.807471,37.0336869 174.807471,36.6476301 C174.807471,36.2489158 174.698364,35.935645 174.480148,35.7078082 C174.261933,35.4799715 173.909313,35.3660548 173.422281,35.3660548 C172.935248,35.3660548 172.582629,35.4799715 172.364413,35.7078082 C172.146197,35.935645 172.037091,36.2489158 172.037091,36.6476301 C172.037091,36.8374941 172.063972,37.0115335 172.117735,37.1697534 C172.171499,37.3279734 172.255305,37.4656227 172.369157,37.5827055 C172.483009,37.6997883 172.626902,37.7915545 172.800843,37.8580068 C172.974783,37.9244592 173.181927,37.9576849 173.422281,37.9576849 Z M187.118765,43.3972603 C186.840461,43.3972603 186.630155,43.3592881 186.48784,43.2833425 C186.345525,43.2073969 186.226931,43.0491793 186.132055,42.8086849 L185.923327,42.2675753 C185.676649,42.4764257 185.439461,42.6599581 185.211757,42.8181781 C184.984054,42.9763981 184.748447,43.110883 184.504931,43.221637 C184.261414,43.332391 184.002089,43.4146641 183.726947,43.4684589 C183.451805,43.5222537 183.146624,43.5491507 182.811394,43.5491507 C182.362311,43.5491507 181.954349,43.4906102 181.587493,43.3735274 C181.220637,43.2564446 180.90913,43.0839874 180.652964,42.8561507 C180.396797,42.6283139 180.199141,42.3451044 180.059989,42.0065137 C179.920836,41.667923 179.851261,41.2771255 179.851261,40.8341096 C179.851261,40.4860257 179.939811,40.1284539 180.116914,39.7613836 C180.294017,39.3943132 180.60078,39.0604741 181.037212,38.7598562 C181.473644,38.4592382 182.061869,38.2076722 182.801906,38.0051507 C183.541943,37.8026291 184.474881,37.6887125 185.600749,37.6633973 L185.600749,37.2456986 C185.600749,36.6697779 185.482155,36.2536657 185.244964,35.9973493 C185.007773,35.741033 184.670966,35.6128767 184.234534,35.6128767 C183.886654,35.6128767 183.602028,35.6508489 183.38065,35.7267945 C183.159271,35.8027401 182.961615,35.8881776 182.787675,35.9831096 C182.613734,36.0780416 182.44454,36.1634791 182.280088,36.2394247 C182.115635,36.3153702 181.91956,36.3533425 181.691856,36.3533425 C181.489453,36.3533425 181.317097,36.304295 181.174782,36.2061986 C181.032467,36.1081022 180.920198,35.9862747 180.837972,35.8407123 L180.306666,34.9198767 C180.901226,34.3945864 181.560608,34.003789 182.284832,33.7474726 C183.009056,33.4911563 183.78545,33.363 184.614038,33.363 C185.208598,33.363 185.744642,33.4595127 186.222187,33.6525411 C186.699732,33.8455695 187.104532,34.1145394 187.4366,34.4594589 C187.768668,34.8043784 188.023249,35.214162 188.200352,35.6888219 C188.377455,36.1634818 188.466005,36.6824355 188.466005,37.2456986 L188.466005,43.3972603 L187.118765,43.3972603 Z M183.741179,41.6030548 C184.120685,41.6030548 184.452748,41.5366034 184.737377,41.4036986 C185.022007,41.2707939 185.309794,41.0556179 185.600749,40.7581644 L185.600749,39.3911507 C185.012515,39.4164659 184.528652,39.4670955 184.149146,39.5430411 C183.76964,39.6189867 183.469202,39.7139172 183.247823,39.8278356 C183.026445,39.941754 182.873063,40.0714924 182.787675,40.2170548 C182.702286,40.3626172 182.659592,40.5208348 182.659592,40.6917123 C182.659592,41.0271387 182.751305,41.2628829 182.934732,41.3989521 C183.11816,41.5350212 183.386973,41.6030548 183.741179,41.6030548 Z M194.041101,29.1860137 L194.041101,43.3972603 L191.099944,43.3972603 L191.099944,29.1860137 L194.041101,29.1860137 Z M203.657917,43.3972603 C203.379612,43.3972603 203.169306,43.3592881 203.026991,43.2833425 C202.884676,43.2073969 202.766083,43.0491793 202.671206,42.8086849 L202.462479,42.2675753 C202.2158,42.4764257 201.978612,42.6599581 201.750909,42.8181781 C201.523205,42.9763981 201.287598,43.110883 201.044082,43.221637 C200.800566,43.332391 200.541241,43.4146641 200.266099,43.4684589 C199.990957,43.5222537 199.685775,43.5491507 199.350545,43.5491507 C198.901463,43.5491507 198.4935,43.4906102 198.126644,43.3735274 C197.759788,43.2564446 197.448282,43.0839874 197.192115,42.8561507 C196.935949,42.6283139 196.738292,42.3451044 196.59914,42.0065137 C196.459988,41.667923 196.390413,41.2771255 196.390413,40.8341096 C196.390413,40.4860257 196.478963,40.1284539 196.656066,39.7613836 C196.833168,39.3943132 197.139931,39.0604741 197.576363,38.7598562 C198.012795,38.4592382 198.601021,38.2076722 199.341057,38.0051507 C200.081094,37.8026291 201.014032,37.6887125 202.1399,37.6633973 L202.1399,37.2456986 C202.1399,36.6697779 202.021306,36.2536657 201.784115,35.9973493 C201.546924,35.741033 201.210117,35.6128767 200.773685,35.6128767 C200.425805,35.6128767 200.14118,35.6508489 199.919801,35.7267945 C199.698423,35.8027401 199.500766,35.8881776 199.326826,35.9831096 C199.152886,36.0780416 198.983692,36.1634791 198.819239,36.2394247 C198.654787,36.3153702 198.458711,36.3533425 198.231008,36.3533425 C198.028605,36.3533425 197.856248,36.304295 197.713933,36.2061986 C197.571619,36.1081022 197.45935,35.9862747 197.377123,35.8407123 L196.845818,34.9198767 C197.440377,34.3945864 198.099759,34.003789 198.823983,33.7474726 C199.548207,33.4911563 200.324601,33.363 201.15319,33.363 C201.747749,33.363 202.283793,33.4595127 202.761338,33.6525411 C203.238883,33.8455695 203.643684,34.1145394 203.975752,34.4594589 C204.307819,34.8043784 204.562401,35.214162 204.739504,35.6888219 C204.916606,36.1634818 205.005156,36.6824355 205.005156,37.2456986 L205.005156,43.3972603 L203.657917,43.3972603 Z M200.28033,41.6030548 C200.659836,41.6030548 200.991899,41.5366034 201.276528,41.4036986 C201.561158,41.2707939 201.848946,41.0556179 202.1399,40.7581644 L202.1399,39.3911507 C201.551666,39.4164659 201.067803,39.4670955 200.688297,39.5430411 C200.308791,39.6189867 200.008353,39.7139172 199.786975,39.8278356 C199.565596,39.941754 199.412215,40.0714924 199.326826,40.2170548 C199.241437,40.3626172 199.198743,40.5208348 199.198743,40.6917123 C199.198743,41.0271387 199.290456,41.2628829 199.473884,41.3989521 C199.657312,41.5350212 199.926124,41.6030548 200.28033,41.6030548 Z M207.54422,43.3972603 L207.54422,33.552863 L209.289939,33.552863 C209.435416,33.552863 209.557172,33.5655204 209.655211,33.5908356 C209.753251,33.6161508 209.835476,33.6557052 209.901889,33.7095 C209.968303,33.7632948 210.018903,33.8344927 210.053691,33.9230959 C210.088479,34.0116991 210.118523,34.119287 210.143823,34.245863 L210.305112,35.1666986 C210.665643,34.6097643 211.070443,34.1699194 211.519526,33.8471507 C211.968608,33.5243819 212.458796,33.363 212.990104,33.363 C213.439186,33.363 213.799712,33.470588 214.071691,33.6857671 L213.692187,35.8502055 C213.666886,35.9831103 213.616286,36.0764586 213.540385,36.1302534 C213.464484,36.1840482 213.363284,36.2109452 213.236782,36.2109452 C213.129255,36.2109452 213.002755,36.1967056 212.857278,36.168226 C212.7118,36.1397464 212.528375,36.1255068 212.306997,36.1255068 C211.535334,36.1255068 210.928134,36.5368726 210.485377,37.3596164 L210.485377,43.3972603 L207.54422,43.3972603 Z M219.305233,33.3819863 C219.72269,33.3819863 220.116422,33.4231229 220.48644,33.5053973 C220.856458,33.5876716 221.19959,33.7047527 221.515845,33.8566438 L224.485465,33.8566438 L224.485465,34.9293699 C224.485465,35.0939186 224.439609,35.2236571 224.347895,35.318589 C224.256181,35.413521 224.099637,35.4863011 223.878258,35.5369315 L223.1572,35.6983151 C223.245752,35.983111 223.290027,36.2773957 223.290027,36.5811781 C223.290027,37.0748244 223.187245,37.5178337 222.98168,37.9102192 C222.776114,38.3026047 222.494651,38.6364438 222.137283,38.9117466 C221.779915,39.1870493 221.357721,39.3990609 220.870688,39.5477877 C220.383655,39.6965144 219.861842,39.7708767 219.305233,39.7708767 C218.995304,39.7708767 218.704353,39.7518906 218.432374,39.7139178 C218.217321,39.8404938 218.109795,39.986054 218.109795,40.1506027 C218.109795,40.3151515 218.196764,40.4338147 218.370705,40.5065959 C218.544645,40.5793771 218.773926,40.6300067 219.058556,40.6584863 C219.343185,40.6869659 219.668923,40.705952 220.035779,40.7154452 C220.402635,40.7249384 220.77581,40.7470889 221.155316,40.7818973 C221.534822,40.8167057 221.907997,40.8752462 222.274853,40.9575205 C222.641709,41.0397949 222.967447,41.1726977 223.252076,41.3562329 C223.536706,41.539768 223.765987,41.7850053 223.939928,42.0919521 C224.113868,42.3988988 224.200837,42.7896963 224.200837,43.2643562 C224.200837,43.7073721 224.093312,44.1408883 223.878258,44.5649178 C223.663205,44.9889473 223.346955,45.3655052 222.929498,45.6946027 C222.512041,46.0237003 221.999716,46.2879237 221.392506,46.4872808 C220.785297,46.686638 220.089546,46.7863151 219.305233,46.7863151 C218.533571,46.7863151 217.867864,46.713535 217.308093,46.5679726 C216.748322,46.4224102 216.283434,46.2309669 215.913415,45.993637 C215.543397,45.756307 215.26984,45.4825906 215.092738,45.1724795 C214.915635,44.8623683 214.827085,44.5396044 214.827085,44.2041781 C214.827085,43.767491 214.95991,43.398844 215.225564,43.098226 C215.491218,42.7976081 215.854906,42.5618639 216.316638,42.3909863 C216.09526,42.2454239 215.91816,42.0587272 215.785333,41.8308904 C215.652506,41.6030537 215.586093,41.3150976 215.586093,40.9670137 C215.586093,40.8214513 215.611393,40.6679803 215.661994,40.5065959 C215.712595,40.3452115 215.791657,40.1885761 215.899184,40.0366849 C216.006711,39.8847938 216.142698,39.7392336 216.307151,39.6 C216.471603,39.4607664 216.667679,39.3373567 216.895382,39.2297671 C216.383049,38.9576288 215.97983,38.5968927 215.685713,38.1475479 C215.391596,37.6982032 215.244539,37.1760852 215.244539,36.5811781 C215.244539,36.0875318 215.348902,35.6429403 215.55763,35.2473904 C215.766358,34.8518405 216.052565,34.5164192 216.416258,34.2411164 C216.779952,33.9658137 217.208471,33.7538021 217.701828,33.6050753 C218.195186,33.4563486 218.729649,33.3819863 219.305233,33.3819863 Z M221.487382,43.758 C221.487382,43.59978 221.438363,43.473206 221.340324,43.378274 C221.242285,43.283342 221.10946,43.2073975 220.941845,43.1504384 C220.77423,43.0934792 220.578155,43.0523426 220.353614,43.0270274 C220.129073,43.0017122 219.887141,42.9827261 219.627812,42.9700685 C219.368483,42.9574109 219.09967,42.9463357 218.821366,42.9368425 C218.543061,42.9273493 218.267924,42.906781 217.995944,42.875137 C217.812516,43.001713 217.662297,43.1425266 217.545283,43.2975822 C217.428269,43.4526378 217.369762,43.6282593 217.369762,43.8244521 C217.369762,43.9636856 217.399806,44.0902597 217.459895,44.2041781 C217.519983,44.3180965 217.625927,44.4161914 217.777729,44.4984658 C217.929532,44.5807401 218.133513,44.6456094 218.38968,44.6930753 C218.645846,44.7405413 218.970003,44.764274 219.362159,44.764274 C219.785941,44.764274 220.133816,44.7389592 220.405795,44.6883288 C220.677775,44.6376984 220.894406,44.5680826 221.055696,44.4794795 C221.216986,44.3908763 221.329255,44.2848705 221.392506,44.1614589 C221.455757,44.0380473 221.487382,43.9035624 221.487382,43.758 Z M219.305233,37.9576849 C219.792266,37.9576849 220.144885,37.8358574 220.363101,37.5921986 C220.581317,37.3485399 220.690424,37.0336869 220.690424,36.6476301 C220.690424,36.2489158 220.581317,35.935645 220.363101,35.7078082 C220.144885,35.4799715 219.792266,35.3660548 219.305233,35.3660548 C218.818201,35.3660548 218.465582,35.4799715 218.247366,35.7078082 C218.02915,35.935645 217.920043,36.2489158 217.920043,36.6476301 C217.920043,36.8374941 217.946925,37.0115335 218.000688,37.1697534 C218.054451,37.3279734 218.138258,37.4656227 218.252109,37.5827055 C218.365961,37.6997883 218.509855,37.7915545 218.683795,37.8580068 C218.857736,37.9244592 219.06488,37.9576849 219.305233,37.9576849 Z M233.001718,43.3972603 C232.723414,43.3972603 232.513107,43.3592881 232.370793,43.2833425 C232.228478,43.2073969 232.109884,43.0491793 232.015007,42.8086849 L231.80628,42.2675753 C231.559601,42.4764257 231.322414,42.6599581 231.09471,42.8181781 C230.867006,42.9763981 230.6314,43.110883 230.387883,43.221637 C230.144367,43.332391 229.885042,43.4146641 229.6099,43.4684589 C229.334758,43.5222537 229.029577,43.5491507 228.694346,43.5491507 C228.245264,43.5491507 227.837301,43.4906102 227.470445,43.3735274 C227.10359,43.2564446 226.792083,43.0839874 226.535917,42.8561507 C226.27975,42.6283139 226.082094,42.3451044 225.942941,42.0065137 C225.803789,41.667923 225.734214,41.2771255 225.734214,40.8341096 C225.734214,40.4860257 225.822764,40.1284539 225.999867,39.7613836 C226.17697,39.3943132 226.483733,39.0604741 226.920164,38.7598562 C227.356596,38.4592382 227.944822,38.2076722 228.684859,38.0051507 C229.424895,37.8026291 230.357834,37.6887125 231.483702,37.6633973 L231.483702,37.2456986 C231.483702,36.6697779 231.365108,36.2536657 231.127917,35.9973493 C230.890725,35.741033 230.553919,35.6128767 230.117487,35.6128767 C229.769606,35.6128767 229.484981,35.6508489 229.263602,35.7267945 C229.042224,35.8027401 228.844568,35.8881776 228.670627,35.9831096 C228.496687,36.0780416 228.327493,36.1634791 228.163041,36.2394247 C227.998588,36.3153702 227.802513,36.3533425 227.574809,36.3533425 C227.372406,36.3533425 227.200049,36.304295 227.057735,36.2061986 C226.91542,36.1081022 226.803151,35.9862747 226.720925,35.8407123 L226.189619,34.9198767 C226.784178,34.3945864 227.44356,34.003789 228.167784,33.7474726 C228.892008,33.4911563 229.668403,33.363 230.496991,33.363 C231.09155,33.363 231.627595,33.4595127 232.10514,33.6525411 C232.582685,33.8455695 232.987485,34.1145394 233.319553,34.4594589 C233.651621,34.8043784 233.906202,35.214162 234.083305,35.6888219 C234.260408,36.1634818 234.348958,36.6824355 234.348958,37.2456986 L234.348958,43.3972603 L233.001718,43.3972603 Z M229.624131,41.6030548 C230.003637,41.6030548 230.3357,41.5366034 230.62033,41.4036986 C230.904959,41.2707939 231.192747,41.0556179 231.483702,40.7581644 L231.483702,39.3911507 C230.895467,39.4164659 230.411604,39.4670955 230.032098,39.5430411 C229.652592,39.6189867 229.352155,39.7139172 229.130776,39.8278356 C228.909398,39.941754 228.756016,40.0714924 228.670627,40.2170548 C228.585238,40.3626172 228.542545,40.5208348 228.542545,40.6917123 C228.542545,41.0271387 228.634257,41.2628829 228.817685,41.3989521 C229.001113,41.5350212 229.269926,41.6030548 229.624131,41.6030548 Z M244.208836,38.2804521 L244.208836,43.3972603 L241.002027,43.3972603 L241.002027,29.5657397 L245.499151,29.5657397 C246.498516,29.5657397 247.350811,29.6685812 248.05606,29.8742671 C248.761308,30.0799531 249.336884,30.3663269 249.782803,30.7333973 C250.228723,31.1004676 250.55288,31.5339838 250.755283,32.0339589 C250.957686,32.533934 251.058886,33.0782025 251.058886,33.6667808 C251.058886,34.1161255 250.998799,34.5401487 250.878622,34.938863 C250.758445,35.3375773 250.579763,35.7062243 250.342572,36.0448151 C250.105381,36.3834058 249.81443,36.6856014 249.469713,36.951411 C249.124995,37.2172205 248.7281,37.4355608 248.279018,37.6064384 C248.494072,37.7140279 248.694891,37.8469307 248.881481,38.0051507 C249.068072,38.1633707 249.23094,38.3563961 249.370093,38.5842329 L252.31125,43.3972603 L249.408043,43.3972603 C248.87041,43.3972603 248.484584,43.1947418 248.250555,42.7896986 L245.954555,38.7740959 C245.853354,38.5968895 245.73476,38.4703154 245.59877,38.3943699 C245.462781,38.3184243 245.271449,38.2804521 245.02477,38.2804521 L244.208836,38.2804521 Z M244.208836,36.0685479 L245.499151,36.0685479 C245.935582,36.0685479 246.307177,36.0131718 246.613944,35.9024178 C246.920711,35.7916638 247.17213,35.6381928 247.368208,35.442 C247.564286,35.2458072 247.706599,35.0163917 247.795151,34.7537466 C247.883702,34.4911014 247.927977,34.2078919 247.927977,33.9041096 C247.927977,33.2965449 247.730321,32.8218921 247.335002,32.480137 C246.939683,32.1383819 246.327739,31.9675068 245.499151,31.9675068 L244.208836,31.9675068 L244.208836,36.0685479 Z M261.776263,32.3757123 C261.681387,32.5276035 261.581768,32.6415202 261.477404,32.7174658 C261.37304,32.7934113 261.238633,32.8313836 261.074181,32.8313836 C260.928703,32.8313836 260.77216,32.7855005 260.604544,32.6937329 C260.436929,32.6019653 260.247179,32.4991239 260.035288,32.3852055 C259.823397,32.2712871 259.581466,32.1684457 259.309487,32.0766781 C259.037507,31.9849105 258.727582,31.9390274 258.379701,31.9390274 C257.778817,31.9390274 257.331323,32.0671836 257.037206,32.3235 C256.743088,32.5798164 256.596032,32.9263129 256.596032,33.363 C256.596032,33.6414671 256.684582,33.8724648 256.861685,34.056 C257.038788,34.2395352 257.271232,34.3977528 257.559024,34.5306575 C257.846816,34.6635623 258.175716,34.7853899 258.545734,34.8961438 C258.915753,35.0068978 259.293672,35.1303075 259.679503,35.2663767 C260.065334,35.4024459 260.443253,35.5622457 260.813272,35.7457808 C261.18329,35.929316 261.51219,36.163478 261.799982,36.448274 C262.087774,36.7330699 262.320218,37.0795665 262.497321,37.487774 C262.674424,37.8959815 262.762974,38.3880382 262.762974,38.9639589 C262.762974,39.6031676 262.652287,40.2012301 262.430908,40.7581644 C262.209529,41.3150987 261.888535,41.8008267 261.467916,42.215363 C261.047297,42.6298993 260.528647,42.9558276 259.911949,43.1931575 C259.295252,43.4304875 258.594758,43.5491507 257.810445,43.5491507 C257.380338,43.5491507 256.942332,43.5048498 256.496412,43.4162466 C256.050493,43.3276434 255.618811,43.2026515 255.201354,43.0412671 C254.783898,42.8798828 254.391747,42.6884395 254.024891,42.4669315 C253.658036,42.2454236 253.338623,41.9986041 253.066644,41.7264658 L254.015404,40.2265479 C254.08498,40.1126296 254.183018,40.0208634 254.30952,39.9512466 C254.436022,39.8816298 254.572009,39.8468219 254.717487,39.8468219 C254.90724,39.8468219 255.098571,39.9069446 255.291487,40.0271918 C255.484402,40.147439 255.702615,40.2803417 255.946131,40.4259041 C256.189648,40.5714665 256.469529,40.7043693 256.785784,40.8246164 C257.102039,40.9448636 257.475214,41.0049863 257.905321,41.0049863 C258.48723,41.0049863 258.939468,40.87683 259.262049,40.6205137 C259.584629,40.3641973 259.745916,39.9575781 259.745916,39.4006438 C259.745916,39.0778751 259.657366,38.8152339 259.480263,38.6127123 C259.303161,38.4101908 259.070717,38.2424801 258.782925,38.1095753 C258.495132,37.9766706 258.167813,37.8595895 257.800958,37.7583288 C257.434102,37.657068 257.057764,37.5447335 256.671933,37.4213219 C256.286102,37.2979103 255.909764,37.1460214 255.542908,36.9656507 C255.176052,36.7852799 254.848733,36.5479535 254.560941,36.2536644 C254.273149,35.9593752 254.040705,35.5923104 253.863602,35.1524589 C253.686499,34.7126074 253.597949,34.169921 253.597949,33.5243836 C253.597949,33.0054221 253.702312,32.4991258 253.91104,32.0054795 C254.119769,31.5118331 254.426531,31.0719882 254.831338,30.6859315 C255.236144,30.2998748 255.732657,29.9913505 256.320891,29.7603493 C256.909126,29.5293482 257.582739,29.4138493 258.341751,29.4138493 C258.765533,29.4138493 259.178239,29.447075 259.579883,29.5135274 C259.981527,29.5799798 260.362609,29.6780747 260.723139,29.8078151 C261.08367,29.9375554 261.420477,30.0926087 261.733569,30.2729795 C262.046662,30.4533502 262.326543,30.6574509 262.573222,30.8852877 L261.776263,32.3757123 Z" id="anos-de-Mangalarga-R" fill="#887003"></path>
            <path d="M83.8545791,13.5616438 C85.3401251,13.5616438 86.6605907,13.7715279 87.8160153,14.1913024 C88.97144,14.6110769 89.9480343,15.1787962 90.7458275,15.8944773 C91.5436208,16.6101584 92.1488341,17.4393726 92.5614858,18.3821449 C92.9741375,19.3249171 93.1804602,20.319286 93.1804602,21.3652815 C93.1804602,22.3149352 93.0841763,23.1510309 92.8916055,23.8735936 C92.6990347,24.5961562 92.4136216,25.2223678 92.0353575,25.7522471 C91.6570935,26.2821264 91.1894286,26.7328611 90.6323489,27.1044647 C90.0752691,27.4760684 89.4391074,27.7857334 88.7238445,28.0334692 C92.0525679,29.1895694 93.7169047,31.4535651 93.7169047,34.8255242 C93.7169047,36.4220435 93.4280528,37.8120956 92.8503405,38.9957221 C92.2726282,40.1793485 91.4989179,41.1633953 90.5291865,41.9478918 C89.5594551,42.7323884 88.4349961,43.3207521 87.155776,43.7130004 C85.8765558,44.1052487 84.5423354,44.3013699 83.1530748,44.3013699 C81.722549,44.3013699 80.4502255,44.1465373 79.336066,43.8368676 C78.2219064,43.5271979 77.2315573,43.0454967 76.3649888,42.3917495 C75.4984203,41.7380024 74.7384649,40.9019067 74.0850997,39.8834374 C73.4317346,38.8649682 72.8643471,37.6538337 72.3829201,36.2499977 L75.2302024,35.0939032 C75.4777934,34.9837985 75.721942,34.9081025 75.9626554,34.8668133 C76.2033689,34.825524 76.4406401,34.8048796 76.674476,34.8048796 C77.1146378,34.8048796 77.5100897,34.8908977 77.8608436,35.0629364 C78.2115975,35.2349751 78.4763784,35.4861479 78.6551941,35.8164623 C79.2741716,36.9587994 79.9309657,37.7880136 80.625596,38.3041298 C81.3202263,38.820246 82.1352011,39.0783002 83.0705449,39.0783002 C83.7858078,39.0783002 84.4082147,38.9578749 84.9377843,38.7170207 C85.467354,38.4761665 85.9075092,38.1665014 86.2582631,37.7880162 C86.609017,37.409531 86.8737978,36.9794407 87.0526136,36.4977322 C87.2314293,36.0160238 87.3208358,35.5274411 87.3208358,35.0319696 C87.3208358,34.385104 87.2761325,33.8036218 87.1867247,33.2875056 C87.0973168,32.7713895 86.8462908,32.3275362 86.4336392,31.9559325 C86.0209875,31.5843289 85.3985806,31.2987489 84.5663997,31.099184 C83.7342188,30.899619 82.5753728,30.7998381 81.0898268,30.7998381 L81.0898268,26.3819057 C82.3415368,26.3819057 83.3525183,26.2855654 84.1228014,26.092882 C84.8930845,25.9001987 85.4879817,25.635263 85.9075109,25.2980671 C86.3270401,24.9608712 86.6055758,24.5514252 86.7431264,24.0697167 C86.8806769,23.5880083 86.9494512,23.058137 86.9494512,22.4800868 C86.9494512,21.2964604 86.664038,20.3846688 86.0932032,19.7446848 C85.5223684,19.1047007 84.6523742,18.7847135 83.4831945,18.7847135 C83.0017675,18.7847135 82.5616124,18.8535279 82.1627157,18.9911589 C81.7638191,19.1287899 81.4061931,19.3145889 81.0898268,19.5485616 C80.7734605,19.7825343 80.5018022,20.0577921 80.2748438,20.3743434 C80.0478854,20.6908946 79.8656336,21.0349669 79.7280831,21.4065706 C79.5080022,22.02591 79.2294665,22.473204 78.8924676,22.7484659 C78.5554688,23.0237279 78.09812,23.1613568 77.5204077,23.1613568 C77.3828571,23.1613568 77.2349925,23.1544754 77.0768094,23.1407123 C76.9186262,23.1269492 76.7570067,23.1063048 76.5919461,23.0787786 L73.2082193,22.4800868 C73.4283002,20.9799091 73.8512618,19.6724344 74.4771169,18.5576235 C75.1029719,17.4428125 75.8801209,16.5138173 76.8085871,15.77061 C77.7370534,15.0274027 78.7996155,14.4734464 79.9963053,14.1087243 C81.1929952,13.7440022 82.4790736,13.5616438 83.8545791,13.5616438 Z M118.88067,28.9211846 C118.88067,31.5499363 118.598696,33.8276949 118.034739,35.7545286 C117.470781,37.6813624 116.690194,39.2778578 115.692952,40.5440629 C114.695711,41.8102679 113.512794,42.753026 112.144166,43.3723654 C110.775538,43.9917048 109.293453,44.3013699 107.697866,44.3013699 C106.10228,44.3013699 104.627072,43.9917048 103.272199,43.3723654 C101.917326,42.753026 100.744725,41.8102679 99.7543612,40.5440629 C98.7639972,39.2778578 97.990287,37.6813624 97.4332072,35.7545286 C96.8761274,33.8276949 96.5975918,31.5499363 96.5975918,28.9211846 C96.5975918,26.2924328 96.8761274,24.0146743 97.4332072,22.0878405 C97.990287,20.1610068 98.7639972,18.5645113 99.7543612,17.2983063 C100.744725,16.0321013 101.917326,15.0927839 103.272199,14.480326 C104.627072,13.8678682 106.10228,13.5616438 107.697866,13.5616438 C109.293453,13.5616438 110.775538,13.8678682 112.144166,14.480326 C113.512794,15.0927839 114.695711,16.0321013 115.692952,17.2983063 C116.690194,18.5645113 117.470781,20.1610068 118.034739,22.0878405 C118.598696,24.0146743 118.88067,26.2924328 118.88067,28.9211846 Z M112.278277,28.9211846 C112.278277,26.8429568 112.147606,25.1397989 111.88626,23.8116599 C111.624914,22.483521 111.277604,21.4409819 110.844319,20.6840115 C110.411035,19.9270411 109.919299,19.407492 109.369097,19.1253484 C108.818895,18.8432049 108.261823,18.7021353 107.697866,18.7021353 C107.133909,18.7021353 106.580276,18.8432049 106.036951,19.1253484 C105.493627,19.407492 105.012207,19.9270411 104.592678,20.6840115 C104.173149,21.4409819 103.836155,22.483521 103.581686,23.8116599 C103.327218,25.1397989 103.199985,26.8429568 103.199985,28.9211846 C103.199985,31.0131755 103.327218,32.7197741 103.581686,34.0410315 C103.836155,35.3622889 104.173149,36.404828 104.592678,37.1686799 C105.012207,37.9325319 105.493627,38.4555217 106.036951,38.7376653 C106.580276,39.0198088 107.133909,39.1608784 107.697866,39.1608784 C108.261823,39.1608784 108.818895,39.0198088 109.369097,38.7376653 C109.919299,38.4555217 110.411035,37.9325319 110.844319,37.1686799 C111.277604,36.404828 111.624914,35.3622889 111.88626,34.0410315 C112.147606,32.7197741 112.278277,31.0131755 112.278277,28.9211846 Z" id="30" fill="#887003"></path>
        </g>
    </g>
</svg>